<svg width="14" height="19" viewBox="0 0 14 19" fill="none" xmlns="http://www.w3.org/2000/svg">
<path d="M6.95076 17.7198C6.04931 16.3722 5.28636 15.2514 4.64015 14.3022C3.49365 12.618 2.7146 11.4736 2.18135 10.5592C1.77366 9.86011 1.5365 9.33832 1.39651 8.85084C1.25805 8.36867 1.20459 7.88504 1.20459 7.25C1.20459 3.91436 3.82088 1.25 7.00004 1.25C10.1792 1.25 12.7955 3.91436 12.7955 7.25C12.7955 7.88504 12.742 8.36867 12.6036 8.85084C12.4636 9.33832 12.2264 9.86011 11.8187 10.5592C11.2855 11.4736 10.5064 12.618 9.35994 14.3022C8.71381 15.2513 7.95099 16.3719 7.04969 17.7193C7.03874 17.7355 7.02946 17.7415 7.02407 17.7443C7.01735 17.7478 7.00915 17.75 7.00004 17.75C6.99093 17.75 6.98274 17.7478 6.97601 17.7443C6.97057 17.7415 6.96116 17.7353 6.95008 17.7188L6.32736 18.1368L6.95076 17.7198ZM7.00004 10.8125C8.94208 10.8125 10.4773 9.1956 10.4773 7.25C10.4773 5.3044 8.94208 3.6875 7.00004 3.6875C5.05801 3.6875 3.52277 5.3044 3.52277 7.25C3.52277 9.1956 5.05801 10.8125 7.00004 10.8125Z" stroke="#8D8D8D" stroke-width="1.5"/>
</svg>
