<svg width="16" height="18" viewBox="0 0 16 18" fill="none" xmlns="http://www.w3.org/2000/svg">
<path d="M3 4.49996V2.69995C3.00001 2.17874 3.16765 1.66867 3.48266 1.23132C3.79768 0.793962 4.24662 0.448017 4.77529 0.235238C5.30395 0.0224602 5.88975 -0.0480548 6.46196 0.032205C7.03418 0.112465 7.56835 0.340069 8 0.687543C8.43165 0.340069 8.96582 0.112465 9.53804 0.032205C10.1103 -0.0480548 10.696 0.0224602 11.2247 0.235238C11.7534 0.448017 12.2023 0.793962 12.5173 1.23132C12.8324 1.66867 13 2.17874 13 2.69995V4.49996H14.5C14.8978 4.49996 15.2794 4.64219 15.5607 4.89536C15.842 5.14854 16 5.49192 16 5.84996V14.8545C16 15.6887 15.6318 16.4888 14.9763 17.0787C14.3209 17.6686 13.4319 18 12.505 18H4C2.93913 18 1.92172 17.6207 1.17157 16.9456C0.421427 16.2704 0 15.3548 0 14.4V5.84996C0 5.49192 0.158035 5.14854 0.43934 4.89536C0.720644 4.64219 1.10218 4.49996 1.5 4.49996H3ZM9.635 16.65C9.22706 16.1233 9.00887 15.4965 9.01 14.8545V5.84996H1.5V14.4C1.5 14.6955 1.56466 14.988 1.6903 15.261C1.81594 15.534 2.00009 15.7821 2.23223 15.991C2.46438 16.1999 2.73998 16.3657 3.04329 16.4787C3.34661 16.5918 3.6717 16.65 4 16.65H9.635ZM7.5 4.49996V2.69995C7.5 2.34191 7.34196 1.99853 7.06066 1.74535C6.77936 1.49218 6.39782 1.34994 6 1.34994C5.60218 1.34994 5.22064 1.49218 4.93934 1.74535C4.65804 1.99853 4.5 2.34191 4.5 2.69995V4.49996H7.5ZM9 4.49996H11.5V2.69995C11.5 2.42206 11.4048 2.15093 11.2272 1.92357C11.0497 1.69622 10.7985 1.52371 10.508 1.42959C10.2175 1.33548 9.90177 1.32435 9.60396 1.39772C9.30615 1.47109 9.04076 1.62539 8.844 1.83955C8.945 2.10955 9 2.39935 9 2.69995V4.49996ZM10.51 14.8545C10.51 15.3307 10.7202 15.7874 11.0943 16.1241C11.4685 16.4608 11.9759 16.65 12.505 16.65C13.0341 16.65 13.5415 16.4608 13.9157 16.1241C14.2898 15.7874 14.5 15.3307 14.5 14.8545V5.84996H10.51V14.8545Z" fill="#8D8D8D"/>
</svg>
