<?xml version="1.0" encoding="utf-8"?><svg viewBox="0 0 40 41" xmlns="http://www.w3.org/2000/svg" xmlns:xlink="http://www.w3.org/1999/xlink"><style>:root>svg{display:none}:root>svg:target{display:block}</style><svg viewBox="0 0 18 18" id="cart" xmlns="http://www.w3.org/2000/svg"><path d="M13.527 15c-.814 0-1.473.671-1.473 1.5s.659 1.5 1.473 1.5C14.34 18 15 17.329 15 16.5s-.66-1.5-1.473-1.5Zm-5.304 0c-.814 0-1.473.671-1.473 1.5S7.41 18 8.223 18c.814 0 1.473-.671 1.473-1.5S9.037 15 8.223 15Z"/><path fill-rule="evenodd" clip-rule="evenodd" d="M13.527 15.75a.737.737 0 0 0-.723.75c0 .427.336.75.723.75a.737.737 0 0 0 .723-.75.737.737 0 0 0-.723-.75Zm-5.304 0a.737.737 0 0 0-.723.75c0 .427.336.75.723.75a.737.737 0 0 0 .723-.75.737.737 0 0 0-.723-.75Zm3.83.75c0-.829.66-1.5 1.474-1.5S15 15.671 15 16.5s-.66 1.5-1.473 1.5c-.814 0-1.473-.671-1.473-1.5Zm-5.303 0c0-.829.66-1.5 1.473-1.5.814 0 1.473.671 1.473 1.5S9.037 18 8.223 18c-.814 0-1.473-.671-1.473-1.5ZM0 .75A.75.75 0 0 1 .75 0h3.51c.34 0 .639.23.726.558l.967 3.655H17.25a.75.75 0 0 1 .705 1.006l-2.809 7.724a.75.75 0 0 1-.705.493h-7.02a.75.75 0 0 1-.726-.558L3.683 1.5H.75A.75.75 0 0 1 0 .75Zm6.35 4.963 1.648 6.223h5.918l2.263-6.223H6.35Z"/></svg><svg viewBox="0 0 20 20" id="close" xmlns="http://www.w3.org/2000/svg"><path d="M19 1 1 19M1 1l18 18"/></svg><svg viewBox="0 0 19 18" id="favorit" xmlns="http://www.w3.org/2000/svg"><path d="M12.987 0a5.68 5.68 0 0 0-2.195.476l-.033.015-.033.019a5.508 5.508 0 0 0-1.255.95c-2.01-1.884-5.21-2.021-7.4.118l-.022.021-.02.023C.108 3.796.153 7.142 1.304 9.788l.01.02.01.022c1.356 2.72 3.888 5.032 6.196 6.932l.006.005.005.005c.148.118.404.362.698.602.295.24.628.502 1.115.603l.11.023.11-.01c.51-.047.71-.252 1.047-.481.336-.23.707-.52 1.09-.838a32.113 32.113 0 0 0 2.045-1.865l.024-.023.003-.003c1.08-1 2.151-2.151 3.059-3.506v-.001l.006-.008c1.439-2.1 2.137-4.928 1.304-7.716l-.015-.05-.02-.046c-.934-2.19-2.945-3.477-5.12-3.453Zm.026 1.715c1.567-.039 2.94.87 3.621 2.424.63 2.176.086 4.393-1.087 6.1l-.003.004-.003.004c-.817 1.222-1.807 2.291-2.833 3.237l-.013.013-.013.013a31.163 31.163 0 0 1-1.958 1.787c-.357.297-.7.563-.966.744-.1.069-.195.115-.273.15a2.431 2.431 0 0 1-.294-.204c-.218-.177-.45-.403-.701-.605-.004-.003-.009-.006-.012-.01-2.24-1.845-4.599-4.085-5.733-6.344-.92-2.131-.88-4.682.42-6.181a3.79 3.79 0 0 1 5.708.415l.638.851.618-.868c.355-.5.779-.881 1.293-1.171a4.36 4.36 0 0 1 1.591-.359Z"/></svg><svg viewBox="0 0 20 24" id="home" xmlns="http://www.w3.org/2000/svg"><path d="M2.222 24h15.556c.59 0 1.154-.253 1.571-.703A2.5 2.5 0 0 0 20 21.6V10.8c0-.157-.027-.314-.082-.46a1.213 1.213 0 0 0-.24-.391l-8.89-9.6A1.07 1.07 0 0 0 10.006 0a1.07 1.07 0 0 0-.783.349l-8.889 9.6a1.208 1.208 0 0 0-.245.39A1.283 1.283 0 0 0 0 10.8v10.8a2.5 2.5 0 0 0 .65 1.697c.418.45.983.703 1.572.703Zm5.556-2.4v-6h4.444v6H7.778ZM2.222 11.292 10 2.893l7.778 8.4V21.6h-3.334v-6a2.5 2.5 0 0 0-.65-1.697 2.143 2.143 0 0 0-1.572-.703H7.778c-.59 0-1.155.253-1.572.703a2.5 2.5 0 0 0-.65 1.697v6H2.222V11.292Z"/></svg><svg viewBox="0 0 14 19" id="location" xmlns="http://www.w3.org/2000/svg"><path d="M6.95 17.72a481.569 481.569 0 0 0-2.31-3.418c-1.146-1.684-1.925-2.828-2.459-3.743-.407-.699-.645-1.22-.784-1.708-.139-.482-.192-.966-.192-1.601 0-3.336 2.616-6 5.795-6 3.18 0 5.796 2.664 5.796 6 0 .635-.054 1.119-.192 1.6-.14.488-.378 1.01-.785 1.71-.534.914-1.313 2.058-2.46 3.742-.645.95-1.408 2.07-2.31 3.417a.07.07 0 0 1-.025.025.052.052 0 0 1-.024.006.052.052 0 0 1-.024-.006.071.071 0 0 1-.026-.025l-.623.418.624-.417ZM7 10.813c1.942 0 3.477-1.617 3.477-3.563 0-1.946-1.535-3.563-3.477-3.563S3.523 5.304 3.523 7.25c0 1.946 1.535 3.563 3.477 3.563Z"/></svg><svg viewBox="0 0 25 17" id="mail" xmlns="http://www.w3.org/2000/svg"><path d="m5.315 11.566-4.043 3.888a2.386 2.386 0 0 1-.263-1.115V1.6l7.33 7.06m7.89.408L24 1.575v12.764c0 .414-.091.793-.252 1.091L18.1 10.032M1.302 1.4l-.029-.019M8.338 8.66l2.058 1.985c.11.105.221.197.331.274 1.12.865 2.422.865 3.536-.005.106-.077.216-.173.318-.27l2.071-1.994"/><path d="m18.064 9.997 5.683 5.433c-.193.37-.493.61-.824.61H2.087c-.323 0-.617-.225-.815-.586l5.56-5.347"/><path d="M18.856 1.041h4.355c.272 0 .534.168.723.437a.688.688 0 0 1 .065.096L16.65 8.65l-2.072 1.995a3.268 3.268 0 0 1-.317.269c-1.114.87-2.417.87-3.536.005a2.778 2.778 0 0 1-.331-.274L8.337 8.659l-7.329-7.06c.018-.03.041-.063.064-.097.194-.288.456-.461.742-.461h3.904m-3.572 15s-1.266.067-1.137-2.156M5.373 1.041h14.732"/></svg><svg viewBox="0 0 18 18" id="phone" xmlns="http://www.w3.org/2000/svg"><path d="m11.908 13.537.364.045.26-.26 1.547-1.548a.766.766 0 0 1 .383-.204l-.15-.735.15.735a.766.766 0 0 1 .434.038l1.88.751h.003a.758.758 0 0 1 .471.694v3.453a.752.752 0 0 1-.786.743c-6.371-.398-10.143-3.276-12.406-6.542C1.772 7.407 1 3.67.754 1.583A.753.753 0 0 1 1.506.75h3.345a.744.744 0 0 1 .69.47l.753 1.89.002.004a.746.746 0 0 1-.161.807l-1.55 1.55-.266.267.055.373.742-.11-.742.111v.003l.001.006.003.019a3.965 3.965 0 0 0 .055.282A10.436 10.436 0 0 0 5.67 9.506c1.06 1.748 2.96 3.622 6.238 4.03Z"/></svg><svg viewBox="0 0 18 19" id="sale" xmlns="http://www.w3.org/2000/svg"><path d="M0 4.12c0-1.075.393-1.945 1.178-2.61C1.964.837 2.993.5 4.266.5c1.292 0 2.33.333 3.115.998.786.657 1.179 1.551 1.179 2.681v.866c0 1.082-.393 1.952-1.179 2.61-.785.657-1.814.985-3.088.985-1.282 0-2.32-.328-3.115-.986C.393 6.99 0 6.095 0 4.973v-.854Zm2.6.925c0 .481.154.87.46 1.166.317.289.728.433 1.233.433.506 0 .908-.148 1.206-.445.298-.296.447-.693.447-1.19v-.89c0-.48-.15-.87-.447-1.166-.298-.297-.709-.445-1.233-.445-.496 0-.898.148-1.205.445-.307.288-.46.693-.46 1.214v.878Zm6.827 8.922c0-1.082.397-1.952 1.191-2.61.795-.665 1.824-.997 3.088-.997 1.283 0 2.317.328 3.102.986.795.649 1.192 1.547 1.192 2.693v.866c0 1.074-.388 1.944-1.165 2.609-.776.657-1.81.986-3.101.986-1.3 0-2.344-.333-3.129-.998-.786-.665-1.178-1.547-1.178-2.645v-.89Zm2.6.938c0 .44.163.817.488 1.13.325.313.731.469 1.219.469 1.101 0 1.652-.541 1.652-1.623v-.914c0-.481-.153-.866-.46-1.154-.308-.297-.714-.445-1.22-.445-.505 0-.911.148-1.218.445-.307.288-.46.685-.46 1.19v.902Zm-6.962 2.044-1.91-.914 9.63-13.683 1.91.914-9.63 13.683Z"/></svg><svg viewBox="0 0 26 26" id="search" xmlns="http://www.w3.org/2000/svg"><path d="M11.119 22.236c2.467 0 4.863-.826 6.806-2.346l6.11 6.11L26 24.035l-6.11-6.11a11.051 11.051 0 0 0 2.348-6.807C22.238 4.988 17.25 0 11.118 0 4.989 0 0 4.988 0 11.118s4.988 11.118 11.119 11.118Zm0-19.456c4.599 0 8.339 3.74 8.339 8.338 0 4.599-3.74 8.339-8.34 8.339-4.598 0-8.338-3.74-8.338-8.339S6.52 2.78 11.119 2.78Z"/></svg><svg viewBox="0 0 16 18" id="shop" xmlns="http://www.w3.org/2000/svg"><path d="M3 4.5V2.7c0-.521.168-1.031.483-1.469A2.937 2.937 0 0 1 4.775.235 3.304 3.304 0 0 1 6.462.032C7.034.112 7.568.34 8 .688A3.152 3.152 0 0 1 9.538.032a3.304 3.304 0 0 1 1.687.203c.528.213.977.559 1.292.996.315.438.483.948.483 1.469v1.8h1.5c.398 0 .78.142 1.06.395.282.254.44.597.44.955v9.005c0 .834-.368 1.634-1.024 2.224-.655.59-1.544.921-2.471.921H4c-1.06 0-2.078-.38-2.828-1.054C.422 16.27 0 15.355 0 14.4V5.85c0-.358.158-.701.44-.955A1.589 1.589 0 0 1 1.5 4.5H3Zm6.635 12.15a2.92 2.92 0 0 1-.625-1.795V5.85H1.5v8.55c0 .295.065.588.19.861.126.273.31.521.542.73.232.209.508.375.811.488.304.113.629.171.957.171h5.635ZM7.5 4.5V2.7c0-.358-.158-.701-.44-.955A1.589 1.589 0 0 0 6 1.35c-.398 0-.78.142-1.06.395-.282.254-.44.597-.44.955v1.8h3Zm1.5 0h2.5V2.7a1.26 1.26 0 0 0-.273-.776 1.492 1.492 0 0 0-.719-.494 1.659 1.659 0 0 0-.904-.032 1.525 1.525 0 0 0-.76.442c.101.27.156.56.156.86v1.8Zm1.51 10.354c0 .477.21.933.584 1.27.375.337.882.526 1.411.526.53 0 1.036-.19 1.41-.526a1.71 1.71 0 0 0 .585-1.27V5.85h-3.99v9.005Z"/></svg><svg viewBox="0 0 18 19" id="shops" xmlns="http://www.w3.org/2000/svg"><path d="M17.325 4.102V1.22a.72.72 0 0 0-.72-.72H1.395a.72.72 0 0 0-.72.72v2.882A.72.72 0 0 0 0 4.82v2.963a3.982 3.982 0 0 0 .324 1.584c.097.23.216.446.351.65v7.763c0 .396.322.72.72.72h15.21a.72.72 0 0 0 .72-.72v-7.763A4.023 4.023 0 0 0 18 7.784V4.82a.72.72 0 0 0-.675-.718ZM2.295 2.12h13.41V4.1H2.295V2.12Zm8.145 14.762H7.56V14.54h2.88v2.342Zm5.265 0H11.88V13.82a.72.72 0 0 0-.72-.72H6.84a.72.72 0 0 0-.72.72v3.062H2.295v-5.45a4.056 4.056 0 0 0 1.786.407 4.058 4.058 0 0 0 2.455-.814.015.015 0 0 1 .014 0 4.056 4.056 0 0 0 2.455.815 4.073 4.073 0 0 0 2.454-.815.015.015 0 0 1 .014 0 4.056 4.056 0 0 0 2.455.815c.548 0 1.08-.106 1.583-.317.068-.03.136-.059.203-.09v5.45h-.009Zm.675-9.099c0 1.346-1.102 2.437-2.46 2.437a2.464 2.464 0 0 1-2.141-1.235.36.36 0 0 0-.313-.182h-.013a.363.363 0 0 0-.313.182A2.458 2.458 0 0 1 9 10.22a2.46 2.46 0 0 1-2.137-1.23.371.371 0 0 0-.644 0 2.467 2.467 0 0 1-2.14 1.23c-1.356 0-2.459-1.091-2.459-2.437V5.731c0-.006.005-.011.011-.011H16.37c.006 0 .011.005.011.011v2.052Z"/></svg><svg viewBox="0 0 40 41" id="social-telegram" xmlns="http://www.w3.org/2000/svg"><circle cx="20" cy="20.041" r="19.5"/><path d="m28.665 11.758-17.73 6.837c-1.21.486-1.203 1.161-.222 1.462l4.552 1.42 10.532-6.645c.498-.303.953-.14.579.192l-8.533 7.701h-.002l.002.001-.314 4.692c.46 0 .663-.211.921-.46l2.211-2.15 4.599 3.397c.848.467 1.457.227 1.668-.785l3.019-14.228c.309-1.239-.473-1.8-1.282-1.434Z"/></svg><svg viewBox="0 0 40 41" id="social-vk" xmlns="http://www.w3.org/2000/svg"><circle cx="20" cy="20.041" r="19.5"/><path d="M29.579 14.896c.14-.465 0-.806-.662-.806h-2.193c-.558 0-.813.295-.953.619 0 0-1.115 2.719-2.695 4.482-.51.513-.743.675-1.021.675-.139 0-.341-.162-.341-.627v-4.343c0-.558-.161-.806-.626-.806h-3.446c-.348 0-.558.258-.558.504 0 .528.79.65.871 2.138v3.228c0 .707-.127.836-.407.836-.743 0-2.551-2.729-3.624-5.853-.209-.607-.42-.852-.98-.852h-2.192c-.627 0-.752.295-.752.619 0 .582.743 3.462 3.461 7.271 1.812 2.601 4.363 4.011 6.687 4.011 1.393 0 1.565-.313 1.565-.853v-1.966c0-.626.133-.752.574-.752.324 0 .882.164 2.183 1.417 1.486 1.486 1.732 2.153 2.567 2.153h2.192c.626 0 .939-.313.759-.931-.197-.615-.907-1.51-1.849-2.569-.512-.604-1.277-1.254-1.51-1.579-.325-.419-.231-.604 0-.976.001.001 2.672-3.761 2.95-5.04Z"/></svg><svg viewBox="0 0 40 41" id="social-youtube" xmlns="http://www.w3.org/2000/svg"><circle cx="20" cy="20.041" r="19.5"/><path d="M30.062 14.98a2.631 2.631 0 0 0-1.857-1.858c-1.638-.44-8.205-.44-8.205-.44s-6.567 0-8.206.438a2.628 2.628 0 0 0-1.856 1.859C9.5 16.619 9.5 20.04 9.5 20.04s0 3.422.438 5.06a2.632 2.632 0 0 0 1.856 1.859c1.639.44 8.206.44 8.206.44s6.567 0 8.206-.44a2.628 2.628 0 0 0 1.856-1.859c.438-1.638.438-5.06.438-5.06s0-3.422-.438-5.06Zm-12.148 8.202V16.9l5.438 3.118-5.438 3.164Z"/></svg><svg viewBox="0 0 18 18" id="user" xmlns="http://www.w3.org/2000/svg"><path fill-rule="evenodd" clip-rule="evenodd" d="M10.621 5.318a1.62 1.62 0 0 0-1.93-1.592h-.003c-.307.054-.636.262-.9.605-.265.342-.41.752-.41 1.107v.751c0 .354.145.76.41 1.104.266.343.598.552.905.609a1.62 1.62 0 0 0 1.928-1.593v-.99Zm-2.232-3.28a3.335 3.335 0 0 1 3.946 3.28v.991a3.335 3.335 0 0 1-3.947 3.28h-.003c-.811-.15-1.488-.648-1.952-1.247-.463-.598-.769-1.367-.769-2.153v-.75c0-.785.302-1.554.766-2.155.462-.6 1.141-1.101 1.96-1.246Z"/><path fill-rule="evenodd" clip-rule="evenodd" d="M9 1.714a7.286 7.286 0 1 0 0 14.572A7.286 7.286 0 0 0 9 1.714ZM0 9a9 9 0 1 1 18 0A9 9 0 0 1 0 9Z"/><path fill-rule="evenodd" clip-rule="evenodd" d="M9 12.335c-2.172 0-4.004 1.248-4.768 2.968a.857.857 0 1 1-1.567-.696C3.714 12.247 6.173 10.62 9 10.62s5.286 1.627 6.334 3.986a.857.857 0 1 1-1.566.696c-.764-1.72-2.596-2.968-4.768-2.968Z"/></svg></svg>